[h264 @ 0x562cb865e840] Reinit context to 1920x1088, pix_fmt: yuv420p
Input #0, mov,mp4,m4a,3gp,3g2,mj2, from '/var/www/html/project/media/video/original/Il_mio_filmato_5.mov':
  Metadata:
    major_brand     : qt  
    minor_version   : 0
    compatible_brands: qt  
    creation_time   : 2025-05-29T16:33:54.000000Z
    com.apple.quicktime.artwork: ˙Ř˙ŕ
    com.apple.quicktime.is-montage: iMovie
  Duration: 00:00:54.60, start: 0.000000, bitrate: 15328 kb/s
    Stream #0:0(und): Audio: aac (LC) (mp4a / 0x6134706D), 44100 Hz, stereo, fltp, 252 kb/s (default)
    Metadata:
      creation_time   : 2025-05-29T16:33:54.000000Z
      handler_name    : Core Media Audio
    Stream #0:1(und): Video: h264 (High), 1 reference frame (avc1 / 0x31637661), yuv420p(tv, bt709, left), 1920x1080 (1920x1088), 15060 kb/s, 29.93 fps, 30 tbr, 600 tbn, 1200 tbc (default)
    Metadata:
      creation_time   : 2025-05-29T16:33:54.000000Z
      handler_name    : Core Media Video
      encoder         : H.264
Input #1, png_pipe, from '/var/www/html/project/static/images/templates/logo.png':
  Duration: N/A, bitrate: N/A
    Stream #1:0: Video: png, 1 reference frame, rgba(pc), 1920x1080 [SAR 2835:2835 DAR 16:9], 25 tbr, 25 tbn, 25 tbc
[h264 @ 0x562cb86c8600] Reinit context to 1280x720, pix_fmt: yuv420p
Input #2, mov,mp4,m4a,3gp,3g2,mj2, from '/var/www/html/project/static/images/templates/Codino.mp4':
  Metadata:
    major_brand     : mp42
    minor_version   : 1
    compatible_brands: isommp41mp42
    creation_time   : 2021-07-11T07:02:58.000000Z
  Duration: 00:00:02.00, start: 0.000000, bitrate: 1007 kb/s
    Stream #2:0(ita): Audio: aac (LC) (mp4a / 0x6134706D), 44100 Hz, stereo, fltp, 102 kb/s (default)
    Metadata:
      creation_time   : 2021-07-11T07:02:58.000000Z
      handler_name    : Core Media Audio
    Stream #2:1(und): Video: h264 (High), 1 reference frame (avc1 / 0x31637661), yuv420p(tv, bt709, progressive, left), 1280x720 [SAR 1:1 DAR 16:9], 813 kb/s, 25 fps, 25 tbr, 25k tbn, 50k tbc (default)
    Metadata:
      creation_time   : 2021-07-11T07:02:58.000000Z
      handler_name    : Core Media Video
[Parsed_scale_0 @ 0x562cb86cb8c0] w:1280 h:720 flags:'bilinear' interl:0
[Parsed_scale_2 @ 0x562cb86fb580] w:1280 h:720 flags:'bilinear' interl:0
[Parsed_scale_4 @ 0x562cb87a83c0] w:1280 h:720 flags:'bilinear' interl:0
Stream mapping:
  Stream #0:0 (aac) -> concat:in0:a0
  Stream #0:1 (h264) -> scale
  Stream #1:0 (png) -> scale
  Stream #2:0 (aac) -> concat:in1:a0
  Stream #2:1 (h264) -> scale
  concat:out:v0 -> Stream #0:0 (libx264)
  concat:out:a0 -> Stream #0:1 (aac)
Press [q] to stop, [?] for help
[h264 @ 0x562cb868e540] Reinit context to 1920x1088, pix_fmt: yuv420p
[h264 @ 0x562cb8a97400] Reinit context to 1280x720, pix_fmt: yuv420p
[Parsed_scale_0 @ 0x562cba0c2200] w:1280 h:720 flags:'bilinear' interl:0
[Parsed_scale_2 @ 0x562cba0c7040] w:1280 h:720 flags:'bilinear' interl:0
[Parsed_scale_4 @ 0x562cba0cbcc0] w:1280 h:720 flags:'bilinear' interl:0
[graph 0 input from stream 0:1 @ 0x562cba0d0440] w:1920 h:1080 pixfmt:yuv420p tb:1/600 fr:30/1 sar:0/1 sws_param:flags=2
[graph 0 input from stream 1:0 @ 0x562cba0d1480] w:1920 h:1080 pixfmt:rgba tb:1/25 fr:25/1 sar:2835/2835 sws_param:flags=2
[graph 0 input from stream 2:1 @ 0x562cba0d2500] w:1280 h:720 pixfmt:yuv420p tb:1/25000 fr:25/1 sar:1/1 sws_param:flags=2
[graph_0_in_0_0 @ 0x562cba0d34c0] tb:1/44100 samplefmt:fltp samplerate:44100 chlayout:0x3
[graph_0_in_2_0 @ 0x562cba0d4600] tb:1/44100 samplefmt:fltp samplerate:44100 chlayout:0x3
[Parsed_scale_0 @ 0x562cba0c2200] w:1920 h:1080 fmt:yuv420p sar:0/1 -> w:1280 h:720 fmt:yuv420p sar:0/1 flags:0x2
[Parsed_setsar_1 @ 0x562cba0c2040] w:1280 h:720 sar:0/1 dar:16/9 -> sar:1/1 dar:16/9
[Parsed_scale_2 @ 0x562cba0c7040] w:1920 h:1080 fmt:rgba sar:2835/2835 -> w:1280 h:720 fmt:yuva420p sar:1/1 flags:0x2
[Parsed_setsar_3 @ 0x562cba0cafc0] w:1280 h:720 sar:1/1 dar:16/9 -> sar:1/1 dar:16/9
[Parsed_overlay_6 @ 0x562cba0cd340] main w:1280 h:720 fmt:yuv420p overlay w:1280 h:720 fmt:yuva420p
[Parsed_overlay_6 @ 0x562cba0cd340] [framesync @ 0x562cba0cd4a8] Selected 1/600 time base
[Parsed_overlay_6 @ 0x562cba0cd340] [framesync @ 0x562cba0cd4a8] Sync level 2
[Parsed_scale_4 @ 0x562cba0cbcc0] w:1280 h:720 fmt:yuv420p sar:1/1 -> w:1280 h:720 fmt:yuv420p sar:1/1 flags:0x2
[Parsed_setsar_5 @ 0x562cba0cc7c0] w:1280 h:720 sar:1/1 dar:16/9 -> sar:1/1 dar:16/9
[libx264 @ 0x562cb86f9000] using SAR=1/1
[libx264 @ 0x562cb86f9000] using cpu capabilities: MMX2 SSE2Fast SSSE3 SSE4.2 AVX FMA3 BMI2 AVX2
[libx264 @ 0x562cb86f9000] profile High, level 3.1
[libx264 @ 0x562cb86f9000] 264 - core 155 r2917 0a84d98 - H.264/MPEG-4 AVC codec - Copyleft 2003-2018 - http://www.videolan.org/x264.html - options: cabac=1 ref=1 deblock=1:0:0 analyse=0x3:0x113 me=hex subme=2 psy=1 psy_rd=1.00:0.00 mixed_ref=0 me_range=16 chroma_me=1 trellis=0 8x8dct=1 cqm=0 deadzone=21,11 fast_pskip=1 chroma_qp_offset=0 threads=22 lookahead_threads=5 sliced_threads=0 nr=0 decimate=1 interlaced=0 bluray_compat=0 constrained_intra=0 bframes=3 b_pyramid=2 b_adapt=1 b_bias=0 direct=1 weightb=1 open_gop=0 weightp=1 keyint=250 keyint_min=25 scenecut=40 intra_refresh=0 rc_lookahead=10 rc=crf mbtree=1 crf=18.0 qcomp=0.60 qpmin=0 qpmax=69 qpstep=4 ip_ratio=1.40 aq=1:1.00
Output #0, mp4, to '/var/www/html/project/media/video/watermarks/Il_mio_filmato_5.mp4':
  Metadata:
    major_brand     : qt  
    minor_version   : 0
    compatible_brands: qt  
    com.apple.quicktime.is-montage: iMovie
    com.apple.quicktime.artwork: ˙Ř˙ŕ
    encoder         : Lavf58.29.100
    Stream #0:0: Video: h264 (libx264), 1 reference frame (avc1 / 0x31637661), yuv420p(progressive), 1280x720 [SAR 1:1 DAR 16:9], q=-1--1, 30 fps, 15360 tbn, 30 tbc (default)
    Metadata:
      encoder         : Lavc58.54.100 libx264
    Side data:
      cpb: bitrate max/min/avg: 0/0/0 buffer size: 0 vbv_delay: -1
    Stream #0:1: Audio: aac (LC) (mp4a / 0x6134706D), 44100 Hz, stereo, fltp, delay 1024, 128 kb/s (default)
    Metadata:
      encoder         : Lavc58.54.100 aac
[Parsed_concat_7 @ 0x562cba0ce480] EOF on in0:a0, 1 streams left in segment.
[Parsed_overlay_6 @ 0x562cba0cd340] [framesync @ 0x562cba0cd4a8] Sync level 0
[Parsed_concat_7 @ 0x562cba0ce480] EOF on in0:v0, 0 streams left in segment.
[Parsed_concat_7 @ 0x562cba0ce480] Segment finished at pts=54611882
[Parsed_concat_7 @ 0x562cba0ce480] EOF on in1:a0, 1 streams left in segment.
[Parsed_concat_7 @ 0x562cba0ce480] EOF on in1:v0, 0 streams left in segment.
[Parsed_concat_7 @ 0x562cba0ce480] Segment finished at pts=56630567
No more output streams to write to, finishing.
frame= 1684 fps= 60 q=-1.0 Lsize=   44262kB time=00:00:56.63 bitrate=6402.5kbits/s speed=2.03x    
[AVIOContext @ 0x562cb865aec0] Statistics: 0 seeks, 55 writeouts
video:43322kB audio:879kB subtitle:0kB other streams:0kB global headers:0kB muxing overhead: 0.137981%
Input file #0 (/var/www/html/project/media/video/original/Il_mio_filmato_5.mov):
  Input stream #0:0 (audio): 2354 packets read (1727390 bytes); 2352 frames decoded (2408384 samples); 
  Input stream #0:1 (video): 1634 packets read (102789320 bytes); 1634 frames decoded; 
  Total: 3988 packets (104516710 bytes) demuxed
Input file #1 (/var/www/html/project/static/images/templates/logo.png):
  Input stream #1:0 (video): 1 packets read (111578 bytes); 1 frames decoded; 
  Total: 1 packets (111578 bytes) demuxed
Input file #2 (/var/www/html/project/static/images/templates/Codino.mp4):
  Input stream #2:0 (audio): 89 packets read (26579 bytes); 87 frames decoded (89024 samples); 
  Input stream #2:1 (video): 50 packets read (203365 bytes); 50 frames decoded; 
  Total: 139 packets (229944 bytes) demuxed
Output file #0 (/var/www/html/project/media/video/watermarks/Il_mio_filmato_5.mp4):
  Output stream #0:0 (video): 1684 frames encoded; 1684 packets muxed (44361709 bytes); 
  Output stream #0:1 (audio): 2439 frames encoded (2497408 samples); 2440 packets muxed (900423 bytes); 
  Total: 4124 packets (45262132 bytes) muxed
[AVIOContext @ 0x562cb86fc140] Statistics: 2 seeks, 176 writeouts
[libx264 @ 0x562cb86f9000] frame I:9     Avg QP:16.24  size:121784
[libx264 @ 0x562cb86f9000] frame P:456   Avg QP:20.13  size: 54239
[libx264 @ 0x562cb86f9000] frame B:1219  Avg QP:23.38  size: 15203
[libx264 @ 0x562cb86f9000] consecutive B-frames:  1.8%  4.3%  2.5% 91.4%
[libx264 @ 0x562cb86f9000] mb I  I16..4: 16.3% 12.8% 70.8%
[libx264 @ 0x562cb86f9000] mb P  I16..4:  4.2%  8.3%  8.6%  P16..4: 29.6% 21.3% 19.1%  0.0%  0.0%    skip: 8.7%
[libx264 @ 0x562cb86f9000] mb B  I16..4:  1.0%  0.9%  0.4%  B16..8: 25.2% 15.1%  4.9%  direct:11.0%  skip:41.5%  L0:30.3% L1:38.7% BI:31.0%
[libx264 @ 0x562cb86f9000] 8x8 transform intra:37.3% inter:26.0%
[libx264 @ 0x562cb86f9000] coded y,uvDC,uvAC intra: 66.3% 70.1% 36.7% inter: 23.2% 18.8% 3.5%
[libx264 @ 0x562cb86f9000] i16 v,h,dc,p: 36% 36% 20%  8%
[libx264 @ 0x562cb86f9000] i8 v,h,dc,ddl,ddr,vr,hd,vl,hu: 26% 29% 17%  4%  4%  4%  5%  4%  6%
[libx264 @ 0x562cb86f9000] i4 v,h,dc,ddl,ddr,vr,hd,vl,hu: 26% 25% 11%  5%  7%  7%  7%  6%  6%
[libx264 @ 0x562cb86f9000] i8c dc,h,v,p: 42% 26% 25%  7%
[libx264 @ 0x562cb86f9000] Weighted P-Frames: Y:6.1% UV:0.4%
[libx264 @ 0x562cb86f9000] kb/s:6270.11
[aac @ 0x562cb88271c0] Qavg: 966.815
[AVIOContext @ 0x562cb8663e40] Statistics: 165651796 bytes read, 3249 seeks
[AVIOContext @ 0x562cb8693880] Statistics: 111578 bytes read, 0 seeks
[AVIOContext @ 0x562cb86c6500] Statistics: 1530915 bytes read, 42 seeks
